<svg
  viewBox="0 0 1859 655"
  class="sc-bcPKhP cvmRst desktop-icon"
  color="text"
  width="20px"
  xmlns="http://www.w3.org/2000/svg"
>
  <g
    id="wordmark"
    stroke="none"
    stroke-width="1"
    fill="none"
    fill-rule="evenodd"
  >
    <g id="Pulse-.com" transform="translate(0.182383, 0.000000)">
      <path
        d="M312.817617,229.166667 C312.817617,253.277778 308.348964,273.597222 299.411658,290.125 C290.474352,306.652778 278.428417,319.972222 263.273855,330.083333 C248.119293,340.194444 230.633259,347.583333 210.815754,352.25 C190.99825,356.916667 170.403588,359.25 149.031769,359.25 L129.488008,359.25 C112.919465,359.25 99.4880076,372.681458 99.4880076,389.25 L99.4880076,495 C99.4880076,506.045695 90.5337026,515 79.4880076,515 L-0.18238342,515 L-0.18238342,515 L-0.18238342,132 C-0.18238342,115.431458 13.2490741,102 29.8176166,102 L151.36324,102 L151.36324,102 C173.900795,102 194.98118,104.236111 214.604395,108.708333 C234.22761,113.180556 251.325065,120.375 265.89676,130.291667 C280.468455,140.208333 291.931521,153.236111 300.285959,169.375 C308.640397,185.513889 312.817617,205.444444 312.817617,229.166667 Z M213.817617,230.047904 C213.817617,220.367265 211.868899,212.429142 207.971463,206.233533 C204.074027,200.037924 198.812488,195.197605 192.186847,191.712575 C185.561206,188.227545 178.058642,185.904192 169.679155,184.742515 C161.299668,183.580838 152.627873,183 143.66377,183 L119.817617,183 C108.771922,183 99.8176166,191.954305 99.8176166,203 L99.8176166,280 L99.8176166,280 L141.909924,280 C151.26377,280 160.227873,279.225549 168.802232,277.676647 C177.376591,276.127745 185.074027,273.417166 191.89454,269.54491 C198.715052,265.672655 204.074027,260.541916 207.971463,254.152695 C211.868899,247.763473 213.817617,239.728543 213.817617,230.047904 Z"
        id="Shape"
        fill="#FFFFFF"
        fill-rule="nonzero"
      ></path>
      <path
        d="M538.510363,515.073575 L538.510363,474.853368 L537.34456,474.853368 C533.84715,481.459585 529.281088,487.677202 523.646373,493.506218 C518.011658,499.335233 511.40544,504.387047 503.82772,508.661658 C496.25,512.936269 487.895078,516.433679 478.762953,519.153886 C469.630829,521.874093 460.012953,523.234197 449.909326,523.234197 C430.479275,523.234197 414.060881,519.736788 400.654145,512.741969 C387.247409,505.74715 376.36658,496.712176 368.011658,485.637047 C359.656736,474.561917 353.63342,461.932383 349.94171,447.748446 C346.25,433.564508 344.404145,419.089119 344.404145,404.32228 L344.404145,254.788601 C344.404145,238.220059 357.835603,224.788601 374.404145,224.788601 L440.582902,224.788601 L440.582902,224.788601 L440.582902,382.172021 C440.582902,390.332642 441.165803,398.104663 442.331606,405.488083 C443.497409,412.871503 445.731865,419.47772 449.034974,425.306736 C452.338083,431.135751 456.709845,435.701813 462.150259,439.004922 C467.590674,442.308031 474.779793,443.959585 483.717617,443.959585 C500.427461,443.959585 513.154145,437.741969 521.897668,425.306736 C530.641192,412.871503 535.012953,398.298964 535.012953,381.589119 L535.012953,254.788601 C535.012953,238.220059 548.444411,224.788601 565.012953,224.788601 L630.608808,224.788601 L630.608808,224.788601 L630.608808,485.073575 C630.608808,501.642118 617.177351,515.073575 600.608808,515.073575 L538.510363,515.073575 L538.510363,515.073575 Z"
        id="Path"
        fill="#FFFFFF"
        fill-rule="nonzero"
      ></path>
      <path
        d="M676.783679,515.073575 L676.783679,104.4 C676.783679,87.8314575 690.215136,74.4 706.783679,74.4 L773.545337,74.4 L773.545337,74.4 L773.545337,485.073575 C773.545337,501.642118 760.113879,515.073575 743.545337,515.073575 L676.783679,515.073575 L676.783679,515.073575 Z"
        id="Path"
        fill="#FFFFFF"
        fill-rule="nonzero"
      ></path>
      <path
        d="M987.564353,296.300736 C984.657809,294.471778 982.003371,292.978959 979.601036,291.82228 C969.108808,286.770466 958.033679,284.24456 946.375648,284.24456 C937.437824,284.24456 929.180052,285.993264 921.602332,289.490674 C914.024611,292.988083 910.235751,299.011399 910.235751,307.560622 C910.235751,315.721244 914.413212,321.550259 922.768135,325.047668 C931.123057,328.545078 944.626943,332.431088 963.279793,336.705699 C974.160622,339.037306 985.138601,342.340415 996.213731,346.615026 C1007.28886,350.889637 1017.29534,356.524352 1026.23316,363.519171 C1035.17098,370.51399 1042.3601,379.063212 1047.80052,389.166839 C1053.24093,399.270466 1055.96114,411.317098 1055.96114,425.306736 C1055.96114,443.570984 1052.26943,459.017876 1044.88601,471.647409 C1037.50259,484.276943 1027.88472,494.47772 1016.03238,502.249741 C1004.18005,510.021762 990.870466,515.656477 976.103627,519.153886 C961.336788,522.651295 946.569948,524.4 931.803109,524.4 C908.098446,524.4 884.879534,520.61114 862.146373,513.03342 C839.413212,505.455699 820.468912,494.28342 805.313472,479.51658 L839.8548,443.098005 C850.11471,432.27444 866.76792,430.635 878.943943,439.246607 C883.148433,442.220857 886.972818,444.569052 890.417098,446.291192 C902.852332,452.508808 916.064767,455.617617 930.054404,455.617617 C937.826425,455.617617 945.501295,453.771762 953.079016,450.080052 C960.656736,446.388342 964.445596,439.879275 964.445596,430.55285 C964.445596,421.615026 959.782383,415.008808 950.455959,410.734197 C941.129534,406.459585 926.556995,401.990674 906.738342,397.327461 C896.634715,394.995855 886.531088,391.887047 876.427461,388.001036 C866.323834,384.115026 857.28886,378.868912 849.322539,372.262694 C841.356218,365.656477 834.84715,357.495855 829.795337,347.780829 C824.743523,338.065803 822.217617,326.407772 822.217617,312.806736 C822.217617,295.319689 825.909326,280.455699 833.292746,268.214767 C840.676166,255.973834 850.196891,245.967358 861.854922,238.195337 C873.512953,230.423316 886.433938,224.691451 900.617876,220.999741 C914.801813,217.308031 928.888601,215.462176 942.878238,215.462176 C964.639896,215.462176 985.915803,218.862435 1006.70596,225.662953 C1027.49611,232.463472 1045.08031,242.664249 1059.45855,256.265285 L1025.09817,291.771013 C1015.23276,301.967773 999.572736,303.857122 987.564353,296.300736 Z"
        id="Path"
        fill="#FFFFFF"
        fill-rule="nonzero"
      ></path>
      <path
        d="M1296.71052,321.311065 C1296.22482,318.646076 1295.93819,317.187608 1295.85062,316.935661 C1293.39307,309.865231 1289.25924,304.217605 1285.53563,300.210526 C1275.04477,288.921053 1261.73231,284 1242.68965,284 C1233.36264,284 1224.81288,285.447368 1217.04037,288.342105 C1209.26785,291.236842 1202.46691,295.192982 1196.63752,300.210526 C1190.80814,305.22807 1186.14463,311.114035 1182.647,317.868421 C1179.14937,324.622807 1177.20624,331.666667 1176.81762,339 L1281.95394,339 C1290.23821,338.99981 1296.95378,332.283927 1296.95359,323.999656 C1296.95357,323.097972 1296.87225,322.198126 1296.71052,321.311065 Z M1384.2338,364.041085 C1384.2338,364.606006 1384.2338,365.170928 1384.2338,365.735849 C1384.2338,382.304392 1370.80234,395.735849 1354.2338,395.735849 L1173.47658,395.735849 L1173.47658,395.735849 C1174.255,403.898113 1176.68756,411.283019 1180.77426,417.890566 C1184.86097,424.498113 1190.1153,430.231132 1196.53727,435.089623 C1202.95924,439.948113 1210.15962,443.737736 1218.13843,446.458491 C1226.11723,449.179245 1234.38794,450.539623 1242.95056,450.539623 C1258.12976,450.539623 1270.97369,447.721698 1281.48236,442.085849 C1285.87166,439.731846 1290.87208,435.991997 1296.48361,430.866304 C1303.13203,424.792783 1313.01962,423.912424 1320.63638,428.715985 L1373.72513,462.2 L1373.72513,462.2 C1360.10278,482.022642 1342.10182,497.278302 1319.72224,507.966981 C1297.34266,518.65566 1271.3629,524 1241.78293,524 C1219.98717,524 1199.35904,520.599057 1179.89854,513.79717 C1160.43804,506.995283 1143.4101,497.083962 1128.81473,484.063208 C1114.21935,471.042453 1102.73766,455.009434 1094.36964,435.964151 C1086.00162,416.918868 1081.81762,395.15283 1081.81762,370.666038 C1081.81762,346.956604 1085.90432,325.482075 1094.07773,306.242453 C1102.25114,287.00283 1113.34363,270.678302 1127.35519,257.268868 C1141.36675,243.859434 1157.90818,233.462264 1176.97947,226.077358 C1196.05076,218.692453 1216.67889,215 1238.86386,215 C1260.27041,215 1279.92552,218.595283 1297.82918,225.785849 C1315.73284,232.976415 1331.10663,243.373585 1343.95056,256.977358 C1356.7945,270.581132 1366.81665,287.1 1374.01704,306.533962 C1381.21742,325.967925 1384.2338,339.165613 1384.2338,364.041085 Z"
        id="Shape"
        fill="#FFFFFF"
        fill-rule="nonzero"
      ></path>
      <g id="Group-4-Copy-4" transform="translate(1307.817617, 0.000000)">
        <path
          d="M350.607,412.346 L471,622 L334.596159,622 C325.647006,622 317.380432,617.21648 312.921058,609.457529 L312.921058,609.457529 L274.985,543.451 L350.607,412.346 Z M136.67325,65 C145.625727,65 153.894842,69.7870435 158.352984,77.550536 L158.352984,77.550536 L236.655,213.908 L160.983,345.098 L0,65 Z"
          id="Combined-Shape-Copy"
          fill="url(#linearGradient-1)"
        ></path>
        <path
          d="M186.068261,630.060049 L551,0 L551,0 L427.299604,0 C409.442016,-3.2246751e-14 392.940022,9.52392606 384.006301,24.9862061 L20,655 L20,655 L142.801715,655 C160.640215,655 177.127587,645.496254 186.068261,630.060049 Z"
          id="Path-4-Copy-2"
          fill="url(#linearGradient-2)"
        ></path>
      </g>
    </g>
  </g>
  <defs>
    <linearGradient
      x1="14.2479105%"
      y1="0%"
      x2="68.77279%"
      y2="111.597742%"
      id="linearGradient-1"
    >
      <stop stop-color="#FF0000" offset="0.0863882212%"></stop>
      <stop stop-color="#FF0033" offset="100%"></stop>
    </linearGradient>
    <linearGradient
      x1="82.8606725%"
      y1="0%"
      x2="31.5206006%"
      y2="107.068238%"
      id="linearGradient-2"
    >
      <stop stop-color="#00FF99" offset="0%"></stop>
      <stop stop-color="#00FF55" offset="100%"></stop>
    </linearGradient>
  </defs>
</svg>
